<svg width="32" height="32" viewBox="0 0 32 32" fill="currentColor" xmlns="http://www.w3.org/2000/svg"><path fill-rule="evenodd" clip-rule="evenodd" d="M13.9996 10.0002C14.001 8.89568 14.8962 8.00049 15.9993 8.00049C17.1052 8.00049 18.0004 8.89568 17.999 10.0002V13.9996L21.9984 13.9996C23.1029 14.001 23.9995 14.8948 23.9995 16.0007C23.9995 17.1038 23.1029 18.0004 21.9984 17.999L18.0004 18.0004L18.0004 21.9998C17.999 23.1043 17.1038 23.9995 16.0007 23.9995C14.8948 23.9995 13.9996 23.1043 14.001 21.9998L13.9996 17.999L10.0016 18.0004C8.8971 17.999 8.00049 17.1052 8.00049 15.9993C8.00049 14.8962 8.8971 13.9996 10.0016 14.001L13.9996 13.9996V10.0002Z" /> </svg>
