<svg width="32" height="32" viewBox="0 0 32 32" fill="currentColor" xmlns="http://www.w3.org/2000/svg">
<path d="M15.999 8.03949C14.299 8.03949 13.139 8.08549 12.229 8.28949L12.214 8.29249C11.424 8.46549 11.11 8.70149 10.923 8.93049H10.922C10.692 9.21249 10.424 9.76549 10.244 10.9735L10.243 10.9785C10.1177 11.8051 10.0513 12.7872 10.0211 14H8.02252C8.20219 6.88356 9.5689 6.03949 16 6.03949C22.4311 6.03949 23.7979 6.88356 23.9775 14H21.979C21.9487 12.7872 21.8823 11.8051 21.757 10.9785L21.756 10.9735C21.576 9.76549 21.308 9.21249 21.078 8.93049H21.077C20.89 8.70149 20.576 8.46549 19.786 8.29249L19.771 8.28949C18.861 8.08549 17.701 8.03949 16.001 8.03949H16H15.999Z"/>
<path fill-rule="evenodd" clip-rule="evenodd" d="M7 19C7 18.448 7.448 18 8 18H24C24.552 18 25 18.448 25 19C25 19.552 24.552 20 24 20H8C7.448 20 7 19.552 7 19Z"/>
<path d="M10.243 21.061L10.244 21.066C10.424 22.274 10.692 22.827 10.922 23.109H10.923C11.11 23.338 11.424 23.574 12.214 23.747L12.229 23.75C13.139 23.954 14.299 24 15.999 24H16H16.001C17.701 24 18.861 23.954 19.771 23.75L19.786 23.747C20.576 23.574 20.89 23.338 21.077 23.109H21.078C21.308 22.827 21.576 22.274 21.756 21.066L21.757 21.061C21.8481 20.46 21.9081 19.7768 21.9456 18.9824H23.9448C23.6614 25.2318 22.1353 26 16 26C9.87053 26 8.34153 25.2332 8.05603 19H10.0552C10.0929 19.7868 10.1526 20.4644 10.243 21.061Z"/>
<mask id="path-4-inside-1_2216_315" fill="white">
<path fill-rule="evenodd" clip-rule="evenodd" d="M6.40303 15.5346C6.2561 15.5999 6.22963 15.6401 6.19598 15.7033C6.13108 15.8251 6 16.1767 6 17V19C6 19.8233 6.13108 20.1749 6.19598 20.2967C6.22963 20.3599 6.2561 20.4001 6.40303 20.4654C6.52933 20.5215 6.76052 20.5994 7.17245 20.6776C7.25024 21.4396 7.36264 22.1328 7.52706 22.7571C6.61319 22.6384 6.01256 22.4805 5.59075 22.293C4.61875 21.861 4 21.007 4 19V17C4 14.993 4.61875 14.139 5.59075 13.707C6.56275 13.275 8.48425 13 13 13H19C23.5158 13 25.4373 13.275 26.4093 13.707C27.3813 14.139 28 14.993 28 17V19C28 21.007 27.3813 21.861 26.4093 22.293C25.9874 22.4805 25.3868 22.6384 24.4729 22.7571C24.6373 22.1329 24.7498 21.4396 24.8276 20.6776C25.2395 20.5994 25.4707 20.5215 25.597 20.4654C25.7439 20.4001 25.7704 20.3599 25.804 20.2967C25.8689 20.1749 26 19.8233 26 19V17C26 16.1767 25.8689 15.8251 25.804 15.7033C25.7704 15.6401 25.7439 15.5999 25.597 15.5346C25.3917 15.4434 24.9093 15.2947 23.8242 15.1805C22.7582 15.0683 21.2279 15 19 15H13C10.7721 15 9.24182 15.0683 8.1758 15.1805C7.09068 15.2947 6.60832 15.4434 6.40303 15.5346Z"/>
</mask>
<path fill-rule="evenodd" clip-rule="evenodd" d="M6.40303 15.5346C6.2561 15.5999 6.22963 15.6401 6.19598 15.7033C6.13108 15.8251 6 16.1767 6 17V19C6 19.8233 6.13108 20.1749 6.19598 20.2967C6.22963 20.3599 6.2561 20.4001 6.40303 20.4654C6.52933 20.5215 6.76052 20.5994 7.17245 20.6776C7.25024 21.4396 7.36264 22.1328 7.52706 22.7571C6.61319 22.6384 6.01256 22.4805 5.59075 22.293C4.61875 21.861 4 21.007 4 19V17C4 14.993 4.61875 14.139 5.59075 13.707C6.56275 13.275 8.48425 13 13 13H19C23.5158 13 25.4373 13.275 26.4093 13.707C27.3813 14.139 28 14.993 28 17V19C28 21.007 27.3813 21.861 26.4093 22.293C25.9874 22.4805 25.3868 22.6384 24.4729 22.7571C24.6373 22.1329 24.7498 21.4396 24.8276 20.6776C25.2395 20.5994 25.4707 20.5215 25.597 20.4654C25.7439 20.4001 25.7704 20.3599 25.804 20.2967C25.8689 20.1749 26 19.8233 26 19V17C26 16.1767 25.8689 15.8251 25.804 15.7033C25.7704 15.6401 25.7439 15.5999 25.597 15.5346C25.3917 15.4434 24.9093 15.2947 23.8242 15.1805C22.7582 15.0683 21.2279 15 19 15H13C10.7721 15 9.24182 15.0683 8.1758 15.1805C7.09068 15.2947 6.60832 15.4434 6.40303 15.5346Z" fill="#D9D9D9" style="fill:#D9D9D9;fill:color(display-p3 0.8510 0.8510 0.8510);fill-opacity:1;"/>
<path d="M6.19598 15.7033L4.43088 14.7629L4.43087 14.7629L6.19598 15.7033ZM6.40303 15.5346L7.2153 17.3622H7.2153L6.40303 15.5346ZM6.19598 20.2967L7.96108 19.3563L7.96108 19.3563L6.19598 20.2967ZM6.40303 20.4654L5.59075 22.293L5.59075 22.293L6.40303 20.4654ZM7.17245 20.6776L9.1621 20.4745L9.01063 18.9909L7.54552 18.7127L7.17245 20.6776ZM7.52706 22.7571L7.26946 24.7404L10.2186 25.1235L9.46109 22.2476L7.52706 22.7571ZM5.59075 22.293L6.40303 20.4654H6.40303L5.59075 22.293ZM5.59075 13.707L6.40303 15.5346H6.40303L5.59075 13.707ZM26.4093 13.707L25.597 15.5346L26.4093 13.707ZM26.4093 22.293L27.2215 24.1206H27.2215L26.4093 22.293ZM24.4729 22.7571L22.5389 22.2476L21.7814 25.1235L24.7305 24.7404L24.4729 22.7571ZM24.8276 20.6776L24.4545 18.7127L22.9894 18.9909L22.8379 20.4745L24.8276 20.6776ZM25.597 20.4654L26.4092 22.293L26.4093 22.293L25.597 20.4654ZM25.804 20.2967L24.0389 19.3562L24.0389 19.3563L25.804 20.2967ZM25.804 15.7033L24.0389 16.6437L24.0389 16.6438L25.804 15.7033ZM25.597 15.5346L26.4093 13.707L26.4092 13.707L25.597 15.5346ZM23.8242 15.1805L24.0335 13.1915L24.0335 13.1915L23.8242 15.1805ZM8.1758 15.1805L7.96647 13.1915L7.96647 13.1915L8.1758 15.1805ZM7.96107 16.6438C7.95259 16.6597 7.83366 16.8928 7.59048 17.1104C7.39173 17.2882 7.2154 17.3622 7.2153 17.3622L5.59075 13.707C5.44373 13.7723 5.1807 13.8991 4.92357 14.1292C4.62201 14.3989 4.47302 14.6838 4.43088 14.7629L7.96107 16.6438ZM8 17C8 16.6913 8.02484 16.5311 8.03541 16.4779C8.0463 16.423 8.03872 16.498 7.96108 16.6437L4.43087 14.7629C4.15477 15.2811 4 15.9962 4 17H8ZM8 19V17H4V19H8ZM7.96108 19.3563C8.03872 19.502 8.0463 19.577 8.03541 19.5221C8.02484 19.4689 8 19.3087 8 19H4C4 20.0038 4.15477 20.7189 4.43087 21.2371L7.96108 19.3563ZM7.2153 18.6378C7.2154 18.6378 7.39173 18.7118 7.59049 18.8896C7.83367 19.1072 7.95259 19.3403 7.96108 19.3563L4.43087 21.2371C4.47302 21.3162 4.62201 21.6011 4.92357 21.8708C5.1807 22.1009 5.44373 22.2277 5.59075 22.293L7.2153 18.6378ZM7.54552 18.7127C7.39049 18.6833 7.29218 18.6582 7.23753 18.6423C7.18205 18.6262 7.18038 18.6222 7.2153 18.6378L5.59075 22.293C5.90402 22.4322 6.29587 22.5469 6.79938 22.6425L7.54552 18.7127ZM9.46109 22.2476C9.33114 21.7543 9.2331 21.1699 9.1621 20.4745L5.18279 20.8807C5.26738 21.7093 5.39413 22.5114 5.59303 23.2665L9.46109 22.2476ZM7.78466 20.7737C6.9632 20.667 6.57589 20.5422 6.40303 20.4654L4.77847 24.1206C5.44924 24.4187 6.26319 24.6097 7.26946 24.7404L7.78466 20.7737ZM6.40303 20.4654C6.2561 20.4001 6.22963 20.3599 6.19598 20.2967C6.13108 20.1749 6 19.8233 6 19H2C2 20.1837 2.17829 21.2626 2.66577 22.1776C3.18449 23.1511 3.95339 23.7539 4.77847 24.1206L6.40303 20.4654ZM6 19V17H2V19H6ZM6 17C6 16.1767 6.13108 15.8251 6.19598 15.7033C6.22963 15.6401 6.2561 15.5999 6.40303 15.5346L4.77847 11.8794C3.95339 12.2461 3.18449 12.8489 2.66577 13.8224C2.17829 14.7374 2 15.8163 2 17H6ZM6.40303 15.5346C6.60832 15.4434 7.09068 15.2947 8.1758 15.1805C9.24182 15.0683 10.7721 15 13 15V11C10.7121 11 9.02381 11.0692 7.75714 11.2025C6.50957 11.3338 5.54518 11.5386 4.77847 11.8794L6.40303 15.5346ZM13 15H19V11H13V15ZM19 15C21.2279 15 22.7582 15.0683 23.8242 15.1805C24.9093 15.2947 25.3917 15.4434 25.597 15.5346L27.2215 11.8794C26.4548 11.5386 25.4904 11.3338 24.2429 11.2025C22.9762 11.0692 21.2879 11 19 11V15ZM25.597 15.5346C25.7439 15.5999 25.7704 15.6401 25.804 15.7033C25.8689 15.8251 26 16.1767 26 17H30C30 15.8163 29.8217 14.7374 29.3342 13.8224C28.8155 12.8489 28.0466 12.2461 27.2215 11.8794L25.597 15.5346ZM26 17V19H30V17H26ZM26 19C26 19.8233 25.8689 20.1749 25.804 20.2967C25.7704 20.3599 25.7439 20.4001 25.597 20.4654L27.2215 24.1206C28.0466 23.7539 28.8155 23.1511 29.3342 22.1776C29.8217 21.2626 30 20.1837 30 19H26ZM25.597 20.4654C25.4241 20.5422 25.0368 20.667 24.2153 20.7737L24.7305 24.7404C25.7368 24.6097 26.5508 24.4187 27.2215 24.1206L25.597 20.4654ZM22.8379 20.4745C22.7669 21.1699 22.6688 21.7543 22.5389 22.2476L26.4069 23.2665C26.6058 22.5115 26.7326 21.7093 26.8172 20.8807L22.8379 20.4745ZM24.7847 18.6378C24.8196 18.6222 24.8179 18.6262 24.7625 18.6423C24.7078 18.6582 24.6095 18.6833 24.4545 18.7127L25.2006 22.6425C25.7041 22.5469 26.096 22.4322 26.4092 22.293L24.7847 18.6378ZM24.0389 19.3563C24.0474 19.3403 24.1663 19.1072 24.4095 18.8896C24.6083 18.7118 24.7846 18.6378 24.7847 18.6378L26.4093 22.293C26.5563 22.2277 26.8193 22.1009 27.0764 21.8708C27.378 21.6011 27.527 21.3162 27.5691 21.2371L24.0389 19.3563ZM24 19C24 19.3087 23.9752 19.4689 23.9646 19.5221C23.9537 19.577 23.9613 19.502 24.0389 19.3562L27.5691 21.2371C27.8452 20.7189 28 20.0038 28 19H24ZM24 17V19H28V17H24ZM24.0389 16.6438C23.9613 16.498 23.9537 16.423 23.9646 16.4779C23.9752 16.5311 24 16.6913 24 17H28C28 15.9962 27.8452 15.2811 27.5691 14.7629L24.0389 16.6438ZM24.7847 17.3622C24.7846 17.3622 24.6083 17.2882 24.4095 17.1104C24.1663 16.8928 24.0474 16.6597 24.0389 16.6437L27.5691 14.7629C27.527 14.6838 27.378 14.3989 27.0764 14.1292C26.8193 13.8991 26.5563 13.7723 26.4093 13.707L24.7847 17.3622ZM23.6149 17.1695C24.6201 17.2753 24.8608 17.3961 24.7847 17.3622L26.4092 13.707C25.9225 13.4907 25.1985 13.3141 24.0335 13.1915L23.6149 17.1695ZM19 17C21.1979 17 22.6492 17.0679 23.6149 17.1695L24.0335 13.1915C22.8672 13.0687 21.2578 13 19 13V17ZM13 17H19V13H13V17ZM8.38513 17.1695C9.35079 17.0679 10.8021 17 13 17V13C10.7422 13 9.13285 13.0687 7.96647 13.1915L8.38513 17.1695ZM7.2153 17.3622C7.13916 17.3961 7.37986 17.2753 8.38513 17.1695L7.96647 13.1915C6.8015 13.3141 6.07748 13.4907 5.59075 13.707L7.2153 17.3622Z" mask="url(#path-4-inside-1_2216_315)"/>
</svg>
